<?xml version="1.0" encoding="UTF-8"?>
<svg id="Layer_1" xmlns="http://www.w3.org/2000/svg" version="1.1" viewBox="0 0 16 16">
  <!-- Generator: Adobe Illustrator 29.6.0, SVG Export Plug-In . SVG Version: 2.1.1 Build 207)  -->
  <defs>
    <style>
      .st0 {
        fill: #eb7523;
      }
    </style>
  </defs>
  <circle cx="8" cy="8" r="7.28"/>
  <path class="st0" d="M8,0C3.59,0,0,3.59,0,8s3.59,8,8,8,8-3.59,8-8S12.41,0,8,0ZM8,7c-.55,0-1,.45-1,1l-2.73,3.33,1.78-5.94c.04-.13.14-.23.27-.26l2.41-.6h0l2.73,2.73-.6,2.41c-.03.13-.13.23-.26.27l-5.94,1.78,3.33-2.73c.55,0,1-.45,1-1s-.45-1-1-1h.01ZM8,15c-1.9,0-3.63-.76-4.89-2l.03-.02,7.68-2.31c.38-.12.68-.42.78-.81l.63-2.51,1.44-1.44h0c.15-.15.15-.39,0-.54l-3.03-3.03h0c-.15-.15-.39-.15-.54,0l-1.44,1.44-2.51.63c-.39.1-.7.39-.81.78l-2.31,7.68-.02.03c-1.24-1.26-2-2.99-2-4.89,0-3.87,3.13-7.01,6.99-7.01s7,3.14,7,7-3.14,7-7,7Z"/>
</svg>